<svg width="1200" height="1600" viewBox="0 0 1200 1600" fill="none" xmlns="http://www.w3.org/2000/svg">
  <rect width="1200" height="1600" fill="#EEF3ED"/>
  <rect x="72" y="72" width="1056" height="1456" rx="48" fill="url(#bg)"/>
  <circle cx="920" cy="260" r="180" fill="#C7DABF" fill-opacity="0.75"/>
  <circle cx="250" cy="1290" r="240" fill="#1B304F" fill-opacity="0.08"/>
  <rect x="328" y="470" width="226" height="520" rx="52" fill="#FCFFFB"/>
  <rect x="646" y="396" width="226" height="594" rx="52" fill="#F7FFF4"/>
  <rect x="370" y="410" width="144" height="108" rx="22" fill="#D7A777"/>
  <rect x="688" y="334" width="144" height="108" rx="22" fill="#1B304F"/>
  <rect x="390" y="624" width="98" height="24" rx="12" fill="#89A47F"/>
  <rect x="390" y="676" width="120" height="24" rx="12" fill="#89A47F"/>
  <rect x="708" y="598" width="108" height="24" rx="12" fill="#89A47F"/>
  <rect x="708" y="650" width="136" height="24" rx="12" fill="#89A47F"/>
  <text x="120" y="1260" fill="#1B304F" font-family="Georgia, serif" font-size="74" font-weight="700">Floya Skincare</text>
  <text x="120" y="1340" fill="#334B68" font-family="Arial, sans-serif" font-size="34">Premium creams, serums, and cleansers demo art</text>
  <defs>
    <linearGradient id="bg" x1="129" y1="130" x2="1090" y2="1518" gradientUnits="userSpaceOnUse">
      <stop stop-color="#FCFFFA"/>
      <stop offset="1" stop-color="#DFEBDD"/>
    </linearGradient>
  </defs>
</svg>
